<?xml version="1.0" encoding="UTF-8"?>
<svg id="Layer_1" xmlns="http://www.w3.org/2000/svg" version="1.1" viewBox="0 0 2000 1000">
  
  <path d="M944.33,624.3h.05c-8.65-14.98-24.38-25.19-46.7-30.31-5.73-1.31-11.76-2.11-17.8-2.42-32.38-1.51-94.66-10.86-147.65-56-24.74-21.07-57.67-58.92-74.5-120.1-3.62-13.07-9.5-62.43-8.59-246.23.05-20.36-3.92-39.31-11.82-56.3-6.58-14.08-15.23-26.35-25.79-36.55-84.15-81.24-268.96-18.2-367.39,49.92C71.56,245.9,52.3,449.51,51.55,458.15c-8.09,94.46,15.69,193.09,66.86,277.65,50.92,84.21,127.19,151.52,214.71,189.47,12.07,5.23,88.58,36.64,189.28,36.64,51.03,0,108.28-8.09,166.55-31.72,125.78-50.98,228.89-161.22,255.88-238.39,4.72-13.58,7.08-25.94,7.08-37.1s-2.46-21.61-7.59-30.41v.02ZM674.07,894.56l.05.05c-158.21,64.09-308.68,2.67-325.26-4.57-80.19-34.79-150.06-96.52-196.92-173.94-47.05-77.73-68.87-168.21-61.48-254.73.5-5.78,10.06-107.08,76.97-203.86-5.38,36-6.99,72.59-4.72,109.54,16.23,252.92,221.5,460.29,477.59,482.42,15.59,1.36,31.12,2.01,46.55,2.01,25.44,0,50.72-1.76,75.71-5.43-27.4,19.1-57.26,35.89-88.48,48.52h-.01ZM827.46,792.57c-59.57,17.7-121.36,23.93-183.8,18.55-236.98-20.46-426.96-212.4-441.99-446.36-3.52-58.21,3.17-115.53,20.01-170.53,13.58-12.77,28.5-25.03,44.94-36.39,4.07-2.81,8.24-5.63,12.52-8.34-3.32,23.12-5.13,47.05-5.32,71.44-.5,136.99,53.59,266.85,152.33,365.48,98.84,98.68,229.79,153.64,368.84,154.69,27.75,0,55.3-2.01,82.45-6.08-13.58,18.9-30.47,38.51-49.97,57.56h0ZM907.94,679.2v.05c-1.41,3.87-2.96,7.95-4.82,12.07-35.14,7.44-71.44,11.26-107.99,11.26-128.49-.95-249.65-51.83-341.14-143.23-91.45-91.35-141.57-211.5-141.11-338.18.31-33.48,3.77-65.91,10.35-96.63,37.86-18.9,78.93-33.53,117.29-41.38,21.22-4.32,40.87-6.48,58.72-6.48,37.05,0,66.36,9.2,85.01,27.24,7.14,6.83,13.07,15.28,17.6,25.03,5.53,11.92,8.3,25.38,8.24,40.02-.7,145.64,2.51,229.59,9.96,256.6,19.4,70.48,57.86,114.57,86.67,139.1,61.83,52.74,133.87,63.55,171.28,65.31,3.77.2,7.39.7,10.81,1.45,7.79,1.76,17.85,5.32,21.67,11.86,3.97,6.94,3.07,20.01-2.51,35.89h-.02Z"></path>
  <g>
    <polygon points="1098.04 792.7 1098.04 257.92 1163.74 257.92 1163.74 735.26 1415.93 735.26 1415.93 792.71 1098.04 792.71 1098.04 792.7"></polygon>
    <path d="M1496.17,324.75c-12.19,0-22.64-4.08-31.39-12.28-8.75-8.18-13.12-18.02-13.12-29.52s4.37-21.33,13.12-29.52c8.75-8.18,19.23-12.28,31.39-12.28s22.64,4.1,31.39,12.28c8.75,8.18,13.12,18.02,13.12,29.52s-4.37,21.34-13.12,29.52c-8.75,8.18-19.17,12.28-31.39,12.28Z"></path>
    <rect x="1464.39" y="391.61" width="62.52" height="401.07"></rect>
    <path d="M1926.82,484.84c-15.48-31.17-37-55.35-64.65-72.59-27.65-17.24-59.82-25.89-96.52-25.89s-68.93,8.65-96.57,25.89c-27.65,17.24-49.22,41.42-64.65,72.59-15.48,31.17-23.18,67.96-23.18,109.4s7.7,77.67,23.18,108.64c15.44,30.97,37,55.1,64.65,72.34,27.65,17.2,59.82,25.84,96.57,25.84s68.87-8.65,96.52-25.84c27.65-17.24,49.22-41.38,64.65-72.34,15.44-31.01,23.18-66.86,23.18-108.64s-7.74-78.23-23.18-109.4ZM1874.49,668.95c-8.65,22.98-21.97,41.52-40.02,55.6-17.99,14.12-40.92,21.16-68.83,21.16s-50.88-7.04-68.93-21.16c-17.99-14.08-31.32-32.63-39.97-55.6-8.7-22.98-13.02-47.86-13.02-74.71s4.33-51.78,13.02-74.91c8.65-23.18,21.97-41.88,39.97-56.16,18.05-14.28,40.97-21.42,68.93-21.42s50.82,7.14,68.83,21.42c18.05,14.28,31.37,32.98,40.02,56.16,8.7,23.12,13.02,48.11,13.02,74.91s-4.32,51.73-13.02,74.71h0Z"></path>
  </g>
</svg>